# xmcd CD database file
#
# Track frame offsets:
#	150
#	26585
#	43535
#
# Disc length: 930 seconds
#
# Revision: 0
# Processed by: cddbd v1.5PL3 Copyright (c) Steve Scherf et al.
# Submitted via: CDex 1.51
#
DISCID=1b03a003
DTITLE=朝日美穂 - 勉強
DYEAR=1997
DGENRE=JPop
TTITLE0=勉強
TTITLE1=ぼくの爆弾
TTITLE2=LESSON 16
EXTD=YEAR: 1997
EXTT0=
EXTT1=
EXTT2=
PLAYORDER=
